<svg width="24" height="26" viewBox="0 0 24 26" fill="none" xmlns="http://www.w3.org/2000/svg">
<path d="M22.5 17.6667V8.33333C22.4996 7.92415 22.3916 7.52228 22.1868 7.16802C21.982 6.81377 21.6877 6.51959 21.3333 6.315L13.1667 1.64833C12.812 1.44354 12.4096 1.33573 12 1.33573C11.5904 1.33573 11.188 1.44354 10.8333 1.64833L2.66667 6.315C2.31231 6.51959 2.01798 6.81377 1.81321 7.16802C1.60843 7.52228 1.50042 7.92415 1.5 8.33333V17.6667C1.50042 18.0758 1.60843 18.4777 1.81321 18.832C2.01798 19.1862 2.31231 19.4804 2.66667 19.685L10.8333 24.3517C11.188 24.5565 11.5904 24.6643 12 24.6643C12.4096 24.6643 12.812 24.5565 13.1667 24.3517L21.3333 19.685C21.6877 19.4804 21.982 19.1862 22.1868 18.832C22.3916 18.4777 22.4996 18.0758 22.5 17.6667Z" stroke="#666666" stroke-width="1.5" stroke-linecap="round" stroke-linejoin="round"/>
</svg>

