<svg width="48" height="67" viewBox="0 0 48 67" fill="none" xmlns="http://www.w3.org/2000/svg">
<path d="M47.2462 61.2106C46.575 62.0811 45.9678 62.9838 45.2008 63.7576C43.4431 65.5953 41.4937 67.3685 38.7452 66.5947C35.7731 65.7242 35.0381 63.1128 34.8144 60.3078C34.4948 56.1166 34.2071 51.8931 33.9195 47.7018C33.8236 46.0898 33.6638 44.4133 31.8422 43.8975C30.2123 43.4139 29.2855 44.768 28.4866 45.8964C26.1856 49.2171 23.9804 52.6346 21.7434 55.9876C20.6248 57.6964 19.4424 59.3084 17.6207 60.3401C14.5527 62.0811 12.2197 61.3718 10.9734 58.0188C10.0466 55.504 9.79092 52.8603 9.79092 50.1844C9.79092 39.0937 9.75895 28.003 9.66307 16.9123C9.63111 14.8811 9.43936 12.85 9.11978 10.8511C8.2569 5.40245 7.42598 5.0478 2.79201 8.14288C2.15285 8.56201 1.54563 9.36802 0.810589 8.78769C-0.0522882 8.0784 0.171421 7.01447 0.810589 6.27294C2.98376 3.69371 4.86931 0.340706 8.95998 1.04999C12.6032 1.6948 13.0187 5.01556 13.4022 7.94944C14.5847 17.1379 13.7218 26.3587 13.9455 35.5472C14.0733 40.8669 14.0094 46.1543 14.1053 51.474C14.1373 53.215 14.4888 55.1494 16.2465 55.8264C18.3558 56.6324 19.2186 54.569 20.1454 53.2794C22.6701 49.733 25.0351 46.0576 27.4959 42.4467C29.1257 40.0286 31.0113 37.7718 34.303 38.8035C37.5628 39.8029 37.9143 42.8013 38.0741 45.6707C38.2978 49.2494 38.0741 52.8925 38.5854 56.4067C39.4164 62.1455 41.0782 62.6614 45.6163 59.1149C46.0957 58.7603 46.7029 58.5991 47.2462 58.3412C47.2462 59.3406 47.2462 60.2756 47.2462 61.2106Z" fill="white"/>
</svg>
