<svg width="47" height="66" viewBox="0 0 47 66" fill="none" xmlns="http://www.w3.org/2000/svg">
<path d="M46.8509 58.3876C45.6046 62.2887 43.3675 64.481 40.5551 65.5772C37.0397 66.9635 34.8346 64.7712 34.1634 61.4504C33.5243 58.2586 33.2047 54.9701 33.1727 51.7138C33.0449 41.268 33.1408 30.7898 33.1088 20.3439C33.1088 18.1516 32.981 15.9592 32.7573 13.7991C32.6294 12.5095 32.1181 11.2844 30.7758 10.8975C29.3697 10.4784 28.4109 11.4456 27.6759 12.4773C25.7584 15.3144 23.9367 18.2161 22.0192 21.0532C20.9007 22.7297 19.8461 24.4707 18.5038 25.9538C17.0337 27.598 15.1801 28.8876 12.7513 28.0816C10.3864 27.3079 9.39565 25.309 9.17194 23.0521C8.85236 20.1182 8.8204 17.1521 8.72452 14.186C8.46886 4.80406 7.5101 4.15925 -0.000128514 8.31826C-0.0320869 4.70734 3.16376 0.419367 6.45548 0.193684C10.5142 -0.0964797 11.5049 2.8374 12.24 6.12592C13.1348 10.2849 12.7513 14.5407 13.0389 18.7319C13.1667 20.4729 13.2946 22.4073 15.244 22.9876C17.0657 23.5357 17.9925 21.8592 18.8553 20.6019C21.1244 17.2489 23.2656 13.7991 25.5347 10.4784C27.3882 7.73794 29.4016 4.6751 33.3006 5.90023C36.9119 7.02865 37.1036 10.5751 37.1356 13.7024C37.2634 25.0833 37.2314 36.4964 37.2634 47.8772C37.2634 49.4248 37.2314 51.0045 37.2954 52.5521C37.551 60.7089 38.9892 61.7084 46.8509 58.3876Z" fill="white"/>
</svg>
