<svg width="20" height="24" viewBox="0 0 20 24" fill="none" xmlns="http://www.w3.org/2000/svg">
<path d="M19.8879 6.4136C20.0477 9.86332 17.9384 11.5721 15.0941 12.4748C12.7612 13.2163 10.3004 13.6354 7.90349 14.248C6.24165 14.6671 4.93136 15.6021 5.25095 17.5043C5.60249 19.5677 7.26433 20.3415 9.11792 19.8256C10.8756 19.342 12.5055 18.3748 14.1993 17.601C14.8704 17.2786 15.5416 16.5693 16.2766 17.2786C17.0116 17.9879 16.4364 18.7294 16.0529 19.3742C13.9117 22.9852 6.08186 24.6294 2.63035 22.2114C-1.04486 19.6322 -0.725273 14.4092 3.3654 12.1846C5.98599 10.7661 8.92617 10.3469 11.8344 9.79884C13.8158 9.41196 15.6374 8.47699 14.9343 6.0912C14.2952 3.96333 12.2818 3.51197 10.3323 4.2535C8.60658 4.89831 7.04062 5.96224 5.4427 6.83273C4.86745 7.12289 4.26024 7.44529 3.81282 6.80049C3.58911 6.47808 3.55715 5.89776 3.65303 5.51087C4.19632 2.96388 10.0447 0.126728 13.9756 0.545853C17.3951 0.900498 19.6322 2.64148 19.8879 6.4136Z" fill="white"/>
</svg>
