<svg width="20" height="24" viewBox="0 0 20 24" fill="none" xmlns="http://www.w3.org/2000/svg">
<path d="M13.1735 0.449219C16.4652 0.707142 19.2456 1.83556 19.8528 5.60768C20.4281 9.12188 18.4467 11.2497 15.3787 12.3459C13.0457 13.1519 10.6169 13.6033 8.18801 14.1836C6.33442 14.635 4.83237 15.5377 5.27979 17.6656C5.75916 20.0191 7.70863 20.3738 9.6581 19.729C11.256 19.2131 12.6941 18.2459 14.2282 17.5044C14.8993 17.182 15.5704 16.4404 16.2735 17.2142C16.9446 17.9235 16.4333 18.665 16.0498 19.3421C13.7807 23.1787 5.69525 24.694 2.24374 21.9858C-1.17582 19.3098 -0.536648 13.8612 3.64991 12.0235C6.14267 10.9273 8.98697 10.5082 11.7034 9.89565C13.7488 9.41205 15.3787 8.47708 14.7075 6.12353C14.0684 3.83446 12.1189 3.7055 10.1375 4.35031C8.95501 4.73719 7.86842 5.31752 6.71792 5.80112C5.72721 6.18801 4.64062 8.02571 3.68187 6.31697C2.97878 5.09183 4.41691 4.06014 5.3437 3.28637C7.61275 1.38419 10.2333 0.54594 13.1735 0.449219Z" fill="white"/>
</svg>
