<svg width="62" height="24" viewBox="0 0 62 24" fill="none" xmlns="http://www.w3.org/2000/svg">
<path d="M0.299149 3.54374C0.650691 1.9962 1.67336 1.31915 2.88778 0.900026C4.8692 0.190737 6.21145 1.09347 7.04237 2.83445C8.4805 5.86505 8.80009 9.12133 8.83205 12.4098C8.86401 14.5377 8.41659 17.2781 11.1011 17.9552C13.5299 18.6 14.3928 16.053 15.4794 14.441C17.7484 11.088 19.7618 7.54155 22.0948 4.25303C23.6288 2.06068 25.6102 0.0617756 28.6463 0.738824C32.0658 1.51259 32.4174 4.57543 32.8009 7.34811C33.1204 9.66941 32.9607 12.0552 33.3122 14.3443C33.5359 15.7951 33.8235 17.6328 35.741 17.9552C37.4029 18.2454 38.2338 16.859 39.0008 15.7306C41.3338 12.2486 43.5389 8.63772 45.8719 5.15576C47.6296 2.51205 49.579 -0.228386 53.2862 0.803306C57.0893 1.835 57.1851 5.22024 57.2491 8.41203C57.281 10.6044 57.281 12.7967 57.3449 14.9891C57.3769 16.4399 57.7284 17.7618 58.815 18.7934C59.582 19.535 61.6913 18.9546 61.148 20.9858C60.8284 22.1142 59.7099 22.5656 58.6233 22.8557C57.0573 23.2749 55.8429 22.5011 55.0759 21.2437C53.3182 18.471 53.7656 15.2148 53.1903 12.1842C52.7749 10.0241 54.0213 6.89674 51.177 6.02625C47.9811 5.0268 47.342 8.47652 45.9997 10.3787C43.6348 13.6672 41.5894 17.1492 39.1606 20.4055C37.7544 22.3076 35.8369 23.9197 33.2163 23.1781C30.5638 22.4688 29.8607 20.212 29.605 17.7295C29.3813 15.5694 29.0937 13.4093 28.87 11.217C28.6463 9.21805 28.9019 6.67105 26.6649 5.99401C24.0443 5.188 23.0535 7.83171 21.8711 9.57269C20.2412 12.023 18.835 14.6667 17.2052 17.1169C16.1825 18.6645 15.032 20.212 13.6897 21.4372C10.0145 24.6934 6.78671 23.6617 5.38054 18.9224C4.70941 16.6333 4.8692 14.2798 4.64549 11.9585C4.32591 9.08908 6.33929 4.89783 0.970273 4.47871C0.682647 4.51095 0.458941 3.8339 0.299149 3.54374Z" fill="white"/>
</svg>
