
        <svg
          width="32"
          height="45"
          viewBox="0 0 32 45"
          fill="none"
          xmlns="http://www.w3.org/2000/svg"
        >
          <path
            d="M31.9999 40.5553C31.5465 41.1414 31.1362 41.7493 30.618 42.2704C29.4304 43.5079 28.1132 44.702 26.2562 44.1809C24.2481 43.5947 23.7515 41.8362 23.6003 39.9474C23.3844 37.125 23.1901 34.2809 22.9957 31.4585C22.931 30.373 22.823 29.2441 21.5922 28.8967C20.491 28.5711 19.8648 29.4829 19.3249 30.2428C17.7703 32.4789 16.2803 34.7803 14.7688 37.0382C14.0131 38.1888 13.2142 39.2743 11.9834 39.9691C9.91046 41.1414 8.33417 40.6638 7.49205 38.4059C6.86585 36.7125 6.69312 34.9322 6.69312 33.1303C6.69312 25.6618 6.67152 18.1934 6.60674 10.725C6.58515 9.35723 6.45559 7.98947 6.23966 6.64342C5.65666 2.97434 5.09524 2.73553 1.96428 4.81974C1.53242 5.10197 1.12216 5.64474 0.625521 5.25395C0.0425135 4.77631 0.193663 4.05987 0.625521 3.56052C2.09383 1.82368 3.36781 -0.434211 6.1317 0.0434203C8.59328 0.477631 8.874 2.71381 9.13311 4.68947C9.93205 10.877 9.34904 17.0862 9.50019 23.2737C9.58656 26.8559 9.54338 30.4164 9.60816 33.9987C9.62975 35.171 9.86726 36.4737 11.0549 36.9296C12.48 37.4724 13.063 36.0829 13.6892 35.2145C15.395 32.8263 16.9929 30.3513 18.6556 27.9197C19.7568 26.2914 21.0308 24.7717 23.2548 25.4664C25.4573 26.1395 25.6948 28.1586 25.8028 30.0908C25.954 32.5007 25.8028 34.9539 26.1483 37.3204C26.7097 41.1849 27.8325 41.5322 30.8987 39.1441C31.2226 38.9053 31.6329 38.7967 31.9999 38.623C31.9999 39.296 31.9999 39.9257 31.9999 40.5553Z"
            fill="black"
          />
        </svg>