        <svg
          width="15"
          height="16"
          viewBox="0 0 15 16"
          fill="none"
          xmlns="http://www.w3.org/2000/svg"
        >
          <path
            d="M9.62962 0.227623C11.8537 0.401307 13.7323 1.16118 14.1425 3.70131C14.5312 6.06775 13.1924 7.50065 11.1195 8.23881C9.54325 8.78157 7.90219 9.08552 6.26113 9.47631C5.00874 9.78025 3.99387 10.3881 4.29617 11.821C4.62007 13.4059 5.93723 13.6447 7.2544 13.2105C8.33404 12.8631 9.30572 12.2118 10.3422 11.7125C10.7956 11.4954 11.2491 10.996 11.7241 11.5171C12.1776 11.9947 11.8321 12.4941 11.573 12.95C10.0399 15.5335 4.57688 16.5539 2.24485 14.7302C-0.0655875 12.9283 0.366272 9.2592 3.19494 8.0217C4.87918 7.28354 6.80095 7.00131 8.63634 6.58881C10.0183 6.26315 11.1195 5.63354 10.6661 4.04868C10.2342 2.50723 8.91705 2.42039 7.57829 2.8546C6.77936 3.11512 6.0452 3.50591 5.26785 3.83157C4.59848 4.0921 3.86432 5.32959 3.21653 4.17894C2.74149 3.35394 3.71317 2.6592 4.33936 2.13815C5.87245 0.857229 7.64307 0.292755 9.62962 0.227623Z"
            fill="black"
          />
        </svg>