        <svg
          width="42"
          height="16"
          viewBox="0 0 42 16"
          fill="none"
          xmlns="http://www.w3.org/2000/svg"
        >
          <path
            d="M0.173645 2.31184C0.411167 1.26973 1.10214 0.813811 1.92267 0.531574C3.26142 0.0539428 4.16832 0.661837 4.72974 1.83421C5.70142 3.87499 5.91735 6.06776 5.93894 8.28223C5.96053 9.71513 5.65823 11.5605 7.47203 12.0164C9.11309 12.4507 9.6961 10.7355 10.4303 9.65C11.9634 7.3921 13.3237 5.00394 14.9 2.78947C15.9364 1.31315 17.2752 -0.0328993 19.3265 0.423022C21.637 0.944074 21.8745 3.00658 22.1336 4.87368C22.3495 6.43684 22.2416 8.04342 22.4791 9.58486C22.6302 10.5618 22.8246 11.7993 24.1201 12.0164C25.243 12.2118 25.8044 11.2783 26.3226 10.5184C27.8989 8.17368 29.3888 5.7421 30.9651 3.39736C32.1527 1.6171 33.4698 -0.228293 35.9746 0.466444C38.5442 1.16118 38.6089 3.44078 38.6521 5.59013C38.6737 7.06644 38.6737 8.54276 38.7169 10.0191C38.7385 10.996 38.976 11.8862 39.7102 12.5809C40.2284 13.0803 41.6535 12.6895 41.2865 14.0572C41.0705 14.8171 40.3148 15.121 39.5806 15.3164C38.5226 15.5987 37.702 15.0776 37.1838 14.2309C35.9962 12.3638 36.2985 10.171 35.9098 8.13026C35.6291 6.67565 36.4713 4.56973 34.5495 3.98355C32.3902 3.31052 31.9583 5.63355 31.0514 6.91447C29.4536 9.12894 28.0716 11.4737 26.4306 13.6664C25.4805 14.9474 24.1849 16.0329 22.4143 15.5335C20.6221 15.0559 20.147 13.5362 19.9743 11.8645C19.8232 10.4099 19.6288 8.95526 19.4777 7.47894C19.3265 6.13289 19.4993 4.41776 17.9878 3.96184C16.2171 3.41907 15.5478 5.19934 14.7488 6.37171C13.6476 8.02171 12.6975 9.80197 11.5963 11.452C10.9053 12.4941 10.128 13.5362 9.22106 14.3612C6.73788 16.5539 4.557 15.8592 3.60691 12.6678C3.15346 11.1263 3.26142 9.54144 3.11027 7.97828C2.89434 6.04605 4.25469 3.22368 0.627093 2.94144C0.432757 2.96315 0.281609 2.50723 0.173645 2.31184Z"
            fill="black"
          />
        </svg>